<svg width="431" height="370" viewBox="0 0 431 370" fill="none" xmlns="http://www.w3.org/2000/svg">
<g clip-path="url(#clip0)">
<path d="M386.326 248.279C381.911 250.014 374.234 251.172 365.374 251.925C341.281 253.977 308.419 253.093 308.419 253.093C308.419 253.093 139.025 259.629 15.3469 185.331C15.3469 185.331 -2.53367 171.9 15.2031 156.595C17.9313 154.313 20.8128 152.341 23.8143 150.7L24.0336 150.45C26.0677 148.307 28.2491 146.399 30.5516 144.748C37.3222 139.818 48.643 134.193 61.9842 137.967L391.167 228.018C391.167 228.018 402.755 241.804 386.326 248.279Z" fill="#FFBA08"/>
<path d="M321.453 213.058L393.542 155.193L423.896 163.938L391.167 228.018C391.167 228.018 321.796 224.121 321.453 213.058Z" fill="#FFBA08"/>
<path d="M148.047 163.497L288.524 123.489L310.594 130.878L246.582 162.372L225.891 188.78L148.047 163.497Z" fill="#FFBA08"/>
<path d="M365.373 251.925C341.281 253.977 308.419 253.093 308.419 253.093C308.419 253.093 139.025 259.629 15.3469 185.331C15.3469 185.331 -2.53366 171.9 15.2031 156.595L15.2482 156.902C15.2482 156.902 41.5568 182.068 171.072 210.209L365.373 251.925Z" fill="#F5F8FA"/>
<path d="M343.177 249.101L403.745 285.225L419.384 284.071L383.823 246.361C383.823 246.361 339.544 231.286 343.177 249.101Z" fill="#FFBA08"/>
<path d="M37.5496 161.812C34.5942 161.678 28.0883 154.955 24.0557 150.451C26.0899 148.308 28.2712 146.4 30.5738 144.75C33.829 148.272 39.6422 154.009 43.007 154.023C47.8635 154.092 42.0007 162.006 37.5496 161.812Z" fill="#F5F8FA"/>
<path d="M311.385 357.973L271.537 357.972L163.762 255.113L143.755 236.015L134.038 226.735C153.776 207.767 229.736 240.771 229.736 240.771C231.147 242.448 231.508 245.102 231.322 247.996C230.968 253.414 228.692 259.65 227.821 261.891C227.611 262.44 227.484 262.73 227.484 262.73L311.385 357.973Z" fill="#FFBA08"/>
<path d="M385.13 121.166L378.007 126.236L382.582 116.891C381.449 115.617 380.013 114.857 378.501 114.733L378.391 114.726C377.912 114.706 377.436 114.629 376.968 114.496L374.559 116.218L375.652 113.981C374.03 113.136 372.66 111.666 371.735 109.778L367.424 112.872L370.309 106.968C368.024 103.094 364.829 100.601 361.207 100.36C356.866 100.072 352.865 103.085 350.157 108.02C349.354 109.498 348.255 110.681 346.974 111.447C345.693 112.212 344.275 112.535 342.863 112.38L342.633 112.365C337.84 112.047 333.671 118.671 333.319 127.164C332.968 135.657 336.567 142.796 341.359 143.114C342.413 143.18 343.463 142.919 344.419 142.354C346.092 141.459 347.898 141.035 349.714 141.11C351.529 141.186 353.309 141.76 354.933 142.792C356.303 143.684 357.806 144.2 359.344 144.307C360.883 144.414 362.422 144.109 363.861 143.412C365.546 142.617 367.346 142.289 369.139 142.452C370.933 142.615 372.678 143.264 374.256 144.355C375.155 145.028 376.168 145.417 377.21 145.492C382.003 145.81 386.171 139.186 386.523 130.693C386.697 127.419 386.218 124.143 385.13 121.166Z" fill="#F5F8FA"/>
<path opacity="0.03" d="M371.23 142.803C368.752 142.037 366.149 142.221 363.753 143.332C362.316 144.035 360.778 144.346 359.24 144.244C357.702 144.142 356.199 143.629 354.828 142.74C353.206 141.705 351.425 141.13 349.609 141.055C347.794 140.979 345.987 141.404 344.314 142.302C343.356 142.865 342.305 143.125 341.251 143.062C336.994 142.779 333.677 137.107 333.238 129.891C334.122 129.163 334.886 128.225 335.486 127.128C338.193 122.198 342.195 119.185 346.535 119.473C350.876 119.761 354.569 123.217 356.852 128.438C357.534 130.015 358.527 131.341 359.735 132.287C360.942 133.233 362.323 133.766 363.742 133.835L363.852 133.842C367.218 134.054 370.011 137.686 371.23 142.803Z" fill="black"/>
<path d="M101.305 82.4064L97.755 84.9366L100.037 80.2777C99.4734 79.6389 98.7566 79.2582 98.0016 79.1963L97.9484 79.1928C97.7092 79.1801 97.4714 79.1417 97.2374 79.0781L96.0371 79.9335L96.5802 78.843C95.7711 78.4224 95.0874 77.6892 94.6264 76.7476L92.4772 78.2948L93.9327 75.3553C93.4171 74.4124 92.742 73.6271 91.9566 73.0566C91.1711 72.4861 90.295 72.1448 89.3922 72.0576C87.2286 71.9141 85.2325 73.4152 83.899 75.8783C83.4978 76.6177 82.9487 77.2087 82.3079 77.5908C81.6671 77.9728 80.9577 78.1323 80.2523 78.0529L80.1371 78.0452C77.7473 77.8867 75.6675 81.196 75.4921 85.4314C75.3167 89.6668 77.1121 93.2274 79.5018 93.386C80.0275 93.4187 80.5516 93.2891 81.029 93.0085C81.8636 92.5605 82.7652 92.348 83.671 92.3857C84.5769 92.4235 85.4654 92.7105 86.2749 93.2269C86.9565 93.6662 87.7033 93.9193 88.4671 93.97C89.2308 94.0206 89.9944 93.8677 90.7086 93.5209C91.5493 93.1237 92.4476 92.9603 93.3426 93.042C94.2375 93.1238 95.108 93.4486 95.895 93.9945C96.3431 94.3271 96.847 94.5207 97.3654 94.5595C99.7551 94.718 101.835 91.4144 102.01 87.179C102.095 85.5384 101.853 83.8971 101.305 82.4064Z" fill="#F5F8FA"/>
<path opacity="0.03" d="M94.3719 93.2007C93.1349 92.8146 91.835 92.9069 90.6398 93.4657C89.9251 93.8101 89.1619 93.9628 88.3983 93.9141C87.6261 93.8626 86.8715 93.6032 86.1846 93.1533C85.3745 92.6388 84.4859 92.3534 83.5801 92.3166C82.6743 92.2799 81.773 92.4928 80.9385 92.9405C80.4626 93.2212 79.94 93.3509 79.4157 93.3183C77.292 93.1774 75.6353 90.347 75.4153 86.75C75.8552 86.3843 76.2366 85.9165 76.5394 85.3713C77.8862 82.909 79.8823 81.4079 82.0326 81.5506C84.1829 81.6932 86.0359 83.4327 87.1822 86.0265C87.5232 86.8148 88.02 87.4772 88.624 87.9487C89.228 88.4203 89.9184 88.6849 90.6275 88.7165L90.6851 88.7203C92.3566 88.8312 93.7618 90.648 94.3719 93.2007Z" fill="black"/>
<path d="M249.101 34.9756L241.978 40.0457L246.553 30.7003C245.42 29.4264 243.984 28.6672 242.472 28.5427L242.361 28.5354C241.882 28.5155 241.406 28.4387 240.939 28.3059L238.529 30.0273L239.622 27.7904C238 26.9461 236.63 25.4756 235.706 23.5878L231.394 26.6814L234.28 20.7782C231.995 16.9035 228.799 14.4103 225.177 14.1701C220.837 13.8822 216.835 16.895 214.128 21.8299C213.324 23.3082 212.226 24.4904 210.945 25.2563C209.664 26.0223 208.245 26.3445 206.834 26.1902L206.603 26.1749C201.811 25.857 197.642 32.4806 197.29 40.9739C196.938 49.4672 200.537 56.6059 205.33 56.9238C206.383 56.9894 207.433 56.7284 208.389 56.1635C210.062 55.2688 211.869 54.8446 213.684 54.9203C215.499 54.9959 217.28 55.5696 218.903 56.6018C220.273 57.4936 221.777 58.0098 223.315 58.1167C224.853 58.2236 226.392 57.9188 227.831 57.2221C229.516 56.4267 231.316 56.0993 233.11 56.2619C234.903 56.4246 236.648 57.0737 238.227 58.1651C239.125 58.8374 240.138 59.2271 241.18 59.3016C245.973 59.6195 250.142 52.996 250.494 44.5027C250.668 41.2292 250.189 37.9529 249.101 34.9756Z" fill="#F5F8FA"/>
<path d="M76.2191 253.101L69.0959 258.171L73.6709 248.826C72.5378 247.552 71.1019 246.793 69.59 246.668L69.4792 246.661C69.0006 246.641 68.5245 246.564 68.0572 246.431L65.6474 248.153L66.7403 245.916C65.1186 245.072 63.7483 243.601 62.8242 241.713L58.5126 244.807L61.3979 238.904C59.1131 235.029 55.9175 232.536 52.2953 232.296C47.9547 232.008 43.9532 235.021 41.2459 239.955C40.4424 241.434 39.3442 242.616 38.063 243.382C36.7818 244.148 35.3634 244.47 33.952 244.316L33.7215 244.3C28.9287 243.983 24.7599 250.606 24.4082 259.099C24.0565 267.593 27.6554 274.731 32.4482 275.049C33.5015 275.115 34.5516 274.854 35.5073 274.289C37.1806 273.394 38.9872 272.97 40.8024 273.046C42.6176 273.121 44.3981 273.695 46.0213 274.727C47.3916 275.619 48.8948 276.135 50.4331 276.242C51.9714 276.349 53.5102 276.044 54.9494 275.348C56.6344 274.552 58.4346 274.225 60.2281 274.388C62.0216 274.55 63.7665 275.199 65.3447 276.291C66.2435 276.963 67.2564 277.353 68.2986 277.427C73.0913 277.745 77.2601 271.122 77.6118 262.628C77.7857 259.355 77.3068 256.078 76.2191 253.101Z" fill="#F5F8FA"/>
<path opacity="0.03" d="M235.201 56.6125C232.722 55.8463 230.12 56.0305 227.723 57.1417C226.287 57.8449 224.749 58.1557 223.211 58.0537C221.673 57.9517 220.169 57.4392 218.799 56.5498C217.176 55.5151 215.395 54.94 213.58 54.8643C211.764 54.7886 209.957 55.2142 208.285 56.1115C207.327 56.6744 206.276 56.9352 205.221 56.8715C200.965 56.5892 197.647 50.9167 197.208 43.7003C198.092 42.9732 198.856 42.0347 199.457 40.9373C202.164 36.008 206.165 32.9952 210.506 33.2831C214.846 33.571 218.54 37.0266 220.822 42.2474C221.505 43.8248 222.498 45.1511 223.705 46.0969C224.913 47.0428 226.293 47.5759 227.712 47.6443L227.823 47.6516C231.189 47.8636 233.981 51.496 235.201 56.6125Z" fill="black"/>
<path opacity="0.03" d="M62.3191 274.738C59.8404 273.972 57.2378 274.156 54.8416 275.267C53.4049 275.97 51.8672 276.281 50.3291 276.179C48.7911 276.077 47.2875 275.565 45.9167 274.675C44.2942 273.641 42.5134 273.066 40.6979 272.99C38.8824 272.914 37.0755 273.34 35.4027 274.237C34.4449 274.8 33.3938 275.061 32.3392 274.997C28.0829 274.715 24.7656 269.042 24.3264 261.826C25.2105 261.099 25.9742 260.16 26.5748 259.063C29.2819 254.134 33.2834 251.121 37.624 251.409C41.9645 251.697 45.6581 255.152 47.9405 260.373C48.6228 261.95 49.6161 263.277 50.8236 264.222C52.0312 265.168 53.4116 265.701 54.8303 265.77L54.9412 265.777C58.3068 265.989 61.0995 269.622 62.3191 274.738Z" fill="black"/>
</g>
<defs>
<clipPath id="clip0">
<rect width="417.491" height="342.477" fill="white" transform="matrix(0.997808 0.0661818 -0.041374 0.999144 14.42 0.185486)"/>
</clipPath>
</defs>
</svg>
